<svg width="20" height="20" viewBox="0 0 20 20" fill="none" xmlns="http://www.w3.org/2000/svg">
<path d="M10.0171 17.1086C8.07542 17.1086 6.13375 16.8003 4.29209 16.1836C3.59209 15.9419 3.05875 15.4503 2.82542 14.8086C2.58375 14.1669 2.66709 13.4586 3.05042 12.8253L4.00875 11.2336C4.20875 10.9003 4.39209 10.2336 4.39209 9.84193V7.43359C4.39209 4.33359 6.91709 1.80859 10.0171 1.80859C13.1171 1.80859 15.6421 4.33359 15.6421 7.43359V9.84193C15.6421 10.2253 15.8254 10.9003 16.0254 11.2419L16.9754 12.8253C17.3338 13.4253 17.4004 14.1503 17.1588 14.8086C16.9171 15.4669 16.3921 15.9669 15.7338 16.1836C13.9004 16.8003 11.9588 17.1086 10.0171 17.1086ZM10.0171 3.05859C7.60875 3.05859 5.64209 5.01693 5.64209 7.43359V9.84193C5.64209 10.4503 5.39209 11.3503 5.08375 11.8753L4.12542 13.4669C3.94209 13.7753 3.89209 14.1003 4.00042 14.3753C4.10042 14.6586 4.35042 14.8753 4.69209 14.9919C8.17542 16.1586 11.8671 16.1586 15.3504 14.9919C15.6504 14.8919 15.8838 14.6669 15.9921 14.3669C16.1004 14.0669 16.0754 13.7419 15.9088 13.4669L14.9504 11.8753C14.6338 11.3336 14.3921 10.4419 14.3921 9.83359V7.43359C14.3921 5.01693 12.4338 3.05859 10.0171 3.05859Z" fill="black"/>
<path d="M11.5667 3.28438C11.5084 3.28438 11.4501 3.27604 11.3917 3.25938C11.1501 3.19271 10.9167 3.14271 10.6917 3.10938C9.98339 3.01771 9.30005 3.06771 8.65839 3.25938C8.42505 3.33438 8.17505 3.25938 8.01672 3.08438C7.85839 2.90938 7.80839 2.65938 7.90005 2.43438C8.24172 1.55938 9.07505 0.984375 10.0251 0.984375C10.9751 0.984375 11.8084 1.55104 12.1501 2.43438C12.2334 2.65938 12.1917 2.90938 12.0334 3.08438C11.9084 3.21771 11.7334 3.28438 11.5667 3.28438Z" fill="black"/>
<path d="M10.0165 19.0078C9.19148 19.0078 8.39148 18.6745 7.80815 18.0911C7.22481 17.5078 6.89148 16.7078 6.89148 15.8828H8.14148C8.14148 16.3745 8.34148 16.8578 8.69148 17.2078C9.04148 17.5578 9.52481 17.7578 10.0165 17.7578C11.0498 17.7578 11.8915 16.9161 11.8915 15.8828H13.1415C13.1415 17.6078 11.7415 19.0078 10.0165 19.0078Z" fill="black"/>
</svg>
