<svg width="16" height="16" viewBox="0 0 16 16" fill="none" xmlns="http://www.w3.org/2000/svg">
<path d="M4.33203 3.83203C4.0587 3.83203 3.83203 3.60536 3.83203 3.33203V1.33203C3.83203 1.0587 4.0587 0.832031 4.33203 0.832031C4.60536 0.832031 4.83203 1.0587 4.83203 1.33203V3.33203C4.83203 3.60536 4.60536 3.83203 4.33203 3.83203Z" fill="black"/>
<path d="M9.66797 3.83203C9.39464 3.83203 9.16797 3.60536 9.16797 3.33203V1.33203C9.16797 1.0587 9.39464 0.832031 9.66797 0.832031C9.9413 0.832031 10.168 1.0587 10.168 1.33203V3.33203C10.168 3.60536 9.9413 3.83203 9.66797 3.83203Z" fill="black"/>
<path d="M4.66667 9.66562C4.58 9.66562 4.49333 9.64562 4.41333 9.61228C4.32667 9.57895 4.26 9.53222 4.19333 9.47222C4.07333 9.34555 4 9.17895 4 8.99895C4 8.91228 4.02 8.82562 4.05333 8.74562C4.08667 8.66562 4.13333 8.59228 4.19333 8.52562C4.26 8.46562 4.32667 8.41888 4.41333 8.38555C4.65333 8.28555 4.95333 8.33895 5.14 8.52562C5.26 8.65228 5.33333 8.82562 5.33333 8.99895C5.33333 9.03895 5.32667 9.08562 5.32 9.13228C5.31333 9.17228 5.3 9.21228 5.28 9.25228C5.26667 9.29228 5.24667 9.33228 5.22 9.37228C5.2 9.40562 5.16667 9.43888 5.14 9.47222C5.01333 9.59222 4.84 9.66562 4.66667 9.66562Z" fill="black"/>
<path d="M6.9987 9.66462C6.91203 9.66462 6.82536 9.64462 6.74536 9.61129C6.6587 9.57796 6.59203 9.53129 6.52536 9.47129C6.40536 9.34462 6.33203 9.17796 6.33203 8.99796C6.33203 8.91129 6.35203 8.82462 6.38536 8.74462C6.4187 8.66462 6.46536 8.59129 6.52536 8.52462C6.59203 8.46462 6.6587 8.41796 6.74536 8.38462C6.98536 8.27796 7.28536 8.33796 7.47203 8.52462C7.59203 8.65129 7.66536 8.82462 7.66536 8.99796C7.66536 9.03796 7.6587 9.08462 7.65203 9.13129C7.64536 9.17129 7.63203 9.21129 7.61203 9.25129C7.5987 9.29129 7.5787 9.33129 7.55203 9.37129C7.53203 9.40462 7.4987 9.43796 7.47203 9.47129C7.34536 9.59129 7.17203 9.66462 6.9987 9.66462Z" fill="black"/>
<path d="M9.33464 9.66462C9.24797 9.66462 9.1613 9.64462 9.0813 9.61129C8.99464 9.57796 8.92797 9.53129 8.8613 9.47129C8.83464 9.43796 8.80797 9.40462 8.7813 9.37129C8.75464 9.33129 8.73464 9.29129 8.7213 9.25129C8.7013 9.21129 8.68797 9.17129 8.6813 9.13129C8.67464 9.08462 8.66797 9.03796 8.66797 8.99796C8.66797 8.82462 8.7413 8.65129 8.8613 8.52462C8.92797 8.46462 8.99464 8.41796 9.0813 8.38462C9.32797 8.27796 9.6213 8.33796 9.80797 8.52462C9.92797 8.65129 10.0013 8.82462 10.0013 8.99796C10.0013 9.03796 9.99463 9.08462 9.98797 9.13129C9.9813 9.17129 9.96797 9.21129 9.94797 9.25129C9.93464 9.29129 9.91464 9.33129 9.88797 9.37129C9.86797 9.40462 9.83463 9.43796 9.80797 9.47129C9.6813 9.59129 9.50797 9.66462 9.33464 9.66462Z" fill="black"/>
<path d="M4.66667 12.0008C4.58 12.0008 4.49333 11.9808 4.41333 11.9474C4.33333 11.9141 4.26 11.8674 4.19333 11.8074C4.07333 11.6808 4 11.5074 4 11.3341C4 11.2474 4.02 11.1608 4.05333 11.0808C4.08667 10.9941 4.13333 10.9208 4.19333 10.8608C4.44 10.6141 4.89333 10.6141 5.14 10.8608C5.26 10.9874 5.33333 11.1608 5.33333 11.3341C5.33333 11.5074 5.26 11.6808 5.14 11.8074C5.01333 11.9274 4.84 12.0008 4.66667 12.0008Z" fill="black"/>
<path d="M6.9987 12.0008C6.82536 12.0008 6.65203 11.9274 6.52536 11.8074C6.40536 11.6808 6.33203 11.5074 6.33203 11.3341C6.33203 11.2474 6.35203 11.1608 6.38536 11.0808C6.4187 10.9941 6.46536 10.9208 6.52536 10.8608C6.77203 10.6141 7.22536 10.6141 7.47203 10.8608C7.53203 10.9208 7.5787 10.9941 7.61203 11.0808C7.64536 11.1608 7.66536 11.2474 7.66536 11.3341C7.66536 11.5074 7.59203 11.6808 7.47203 11.8074C7.34536 11.9274 7.17203 12.0008 6.9987 12.0008Z" fill="black"/>
<path d="M9.33464 12.0019C9.1613 12.0019 8.98797 11.9286 8.8613 11.8086C8.8013 11.7486 8.75464 11.6752 8.7213 11.5886C8.68797 11.5086 8.66797 11.4219 8.66797 11.3352C8.66797 11.2486 8.68797 11.1619 8.7213 11.0819C8.75464 10.9952 8.8013 10.9219 8.8613 10.8619C9.01464 10.7086 9.24797 10.6352 9.4613 10.6819C9.50797 10.6886 9.54797 10.7019 9.58797 10.7219C9.62797 10.7352 9.66797 10.7552 9.70797 10.7819C9.7413 10.8019 9.77463 10.8352 9.80797 10.8619C9.92797 10.9886 10.0013 11.1619 10.0013 11.3352C10.0013 11.5086 9.92797 11.6819 9.80797 11.8086C9.6813 11.9286 9.50797 12.0019 9.33464 12.0019Z" fill="black"/>
<path d="M12.6654 6.55859H1.33203C1.0587 6.55859 0.832031 6.33193 0.832031 6.05859C0.832031 5.78526 1.0587 5.55859 1.33203 5.55859H12.6654C12.9387 5.55859 13.1654 5.78526 13.1654 6.05859C13.1654 6.33193 12.9387 6.55859 12.6654 6.55859Z" fill="black"/>
<path d="M9.66667 15.1654H4.33333C1.9 15.1654 0.5 13.7654 0.5 11.332V5.66536C0.5 3.23203 1.9 1.83203 4.33333 1.83203H9.66667C12.1 1.83203 13.5 3.23203 13.5 5.66536V11.332C13.5 13.7654 12.1 15.1654 9.66667 15.1654ZM4.33333 2.83203C2.42667 2.83203 1.5 3.7587 1.5 5.66536V11.332C1.5 13.2387 2.42667 14.1654 4.33333 14.1654H9.66667C11.5733 14.1654 12.5 13.2387 12.5 11.332V5.66536C12.5 3.7587 11.5733 2.83203 9.66667 2.83203H4.33333Z" fill="black"/>
</svg>
