<svg width="21" height="21" viewBox="0 0 21 21" fill="none" xmlns="http://www.w3.org/2000/svg">
<path d="M6.13333 18.5856H14.8667C17.1667 18.5856 18.0833 17.1773 18.1917 15.4606L18.625 8.57728C18.7417 6.77728 17.3083 5.25228 15.5 5.25228C14.9917 5.25228 14.525 4.96061 14.2917 4.51061L13.6917 3.30228C13.3083 2.54395 12.3083 1.91895 11.4583 1.91895H9.55C8.69166 1.91895 7.69166 2.54395 7.30833 3.30228L6.70833 4.51061C6.475 4.96061 6.00833 5.25228 5.5 5.25228C3.69166 5.25228 2.25833 6.77728 2.375 8.57728L2.80833 15.4606C2.90833 17.1773 3.83333 18.5856 6.13333 18.5856Z" stroke="#493A77" stroke-linecap="round" stroke-linejoin="round"/>
<path d="M9.25 6.91895H11.75" stroke="#493A77" stroke-linecap="round" stroke-linejoin="round"/>
<path d="M10.5 15.2497C11.9917 15.2497 13.2084 14.033 13.2084 12.5413C13.2084 11.0497 11.9917 9.83301 10.5 9.83301C9.00835 9.83301 7.79169 11.0497 7.79169 12.5413C7.79169 14.033 9.00835 15.2497 10.5 15.2497Z" stroke="#493A77" stroke-linecap="round" stroke-linejoin="round"/>
</svg>
