<svg width="64" height="64" viewBox="0 0 64 64" fill="none" xmlns="http://www.w3.org/2000/svg">
<path d="M51.5204 26.6661H12.507C8.56037 26.6661 5.36035 23.4394 5.36035 19.5194V12.5061C5.36035 8.5594 8.58704 5.35938 12.507 5.35938H51.5204C55.4671 5.35938 58.667 8.58606 58.667 12.5061V19.5194C58.667 23.4394 55.4404 26.6661 51.5204 26.6661Z" stroke="#32414E" stroke-width="3" stroke-linecap="round" stroke-linejoin="round"/>
<path d="M51.5204 58.6661H12.507C8.56037 58.6661 5.36035 55.4394 5.36035 51.5194V44.5061C5.36035 40.5594 8.58704 37.3594 12.507 37.3594H51.5204C55.4671 37.3594 58.667 40.5861 58.667 44.5061V51.5194C58.667 55.4394 55.4404 58.6661 51.5204 58.6661Z" stroke="#32414E" stroke-width="3" stroke-linecap="round" stroke-linejoin="round"/>
<path d="M16 13.332V18.6654" stroke="#32414E" stroke-width="3" stroke-linecap="round" stroke-linejoin="round"/>
<path d="M26.667 13.332V18.6654" stroke="#32414E" stroke-width="3" stroke-linecap="round" stroke-linejoin="round"/>
<path d="M16 45.332V50.6654" stroke="#32414E" stroke-width="3" stroke-linecap="round" stroke-linejoin="round"/>
<path d="M26.667 45.332V50.6654" stroke="#32414E" stroke-width="3" stroke-linecap="round" stroke-linejoin="round"/>
<path d="M37.333 16H47.9997" stroke="#32414E" stroke-width="3" stroke-linecap="round" stroke-linejoin="round"/>
<path d="M37.333 48H47.9997" stroke="#32414E" stroke-width="3" stroke-linecap="round" stroke-linejoin="round"/>
</svg>
