<svg width="21" height="20" viewBox="0 0 21 20" fill="none" xmlns="http://www.w3.org/2000/svg">
<path d="M5.97397 18.3346H14.7073C17.0073 18.3346 17.924 16.9263 18.0323 15.2096L18.4656 8.3263C18.5823 6.5263 17.149 5.0013 15.3406 5.0013C14.8323 5.0013 14.3656 4.70964 14.1323 4.25964L13.5323 3.0513C13.149 2.29297 12.149 1.66797 11.299 1.66797H9.39063C8.5323 1.66797 7.5323 2.29297 7.14897 3.0513L6.54897 4.25964C6.31563 4.70964 5.84897 5.0013 5.34063 5.0013C3.5323 5.0013 2.09897 6.5263 2.21563 8.3263L2.64897 15.2096C2.74897 16.9263 3.67397 18.3346 5.97397 18.3346Z" stroke="white" stroke-linecap="round" stroke-linejoin="round"/>
<path d="M14.0042 11.1325C14.0042 13.1575 12.3655 14.7962 10.3405 14.7962C8.31545 14.7962 7.08309 12.7579 7.08309 12.7579M7.08309 12.7579H8.73511M7.08309 12.7579V14.5897M6.67676 11.1325C6.67676 9.10744 8.30212 7.46875 10.3405 7.46875C12.7852 7.46875 14.0042 9.50712 14.0042 9.50712M14.0042 9.50712V7.67525M14.0042 9.50712H12.3789" stroke="white" stroke-linecap="round" stroke-linejoin="round"/>
</svg>
