<svg width="16" height="16" viewBox="0 0 16 16" fill="none" xmlns="http://www.w3.org/2000/svg">
<path d="M8.00016 15.1654C4.04683 15.1654 0.833496 11.952 0.833496 7.9987C0.833496 4.04536 4.04683 0.832031 8.00016 0.832031C11.9535 0.832031 15.1668 4.04536 15.1668 7.9987C15.1668 11.952 11.9535 15.1654 8.00016 15.1654ZM8.00016 1.83203C4.60016 1.83203 1.8335 4.5987 1.8335 7.9987C1.8335 11.3987 4.60016 14.1654 8.00016 14.1654C11.4002 14.1654 14.1668 11.3987 14.1668 7.9987C14.1668 4.5987 11.4002 1.83203 8.00016 1.83203Z" fill="black"/>
<path d="M5.99967 14.5H5.333C5.05967 14.5 4.833 14.2733 4.833 14C4.833 13.7267 5.04633 13.5067 5.31967 13.5C4.273 9.92667 4.273 6.07333 5.31967 2.5C5.04633 2.49333 4.833 2.27333 4.833 2C4.833 1.72667 5.05967 1.5 5.333 1.5H5.99967C6.15967 1.5 6.313 1.58 6.40633 1.70667C6.49967 1.84 6.52633 2.00667 6.473 2.16C5.21967 5.92667 5.21967 10.0733 6.473 13.8467C6.52633 14 6.49967 14.1667 6.40633 14.3C6.313 14.42 6.15967 14.5 5.99967 14.5Z" fill="black"/>
<path d="M9.99961 14.4978C9.94628 14.4978 9.89295 14.4912 9.83961 14.4712C9.57961 14.3845 9.43295 14.0978 9.52628 13.8378C10.7796 10.0712 10.7796 5.92451 9.52628 2.15117C9.43961 1.89117 9.57961 1.60451 9.83961 1.51784C10.1063 1.43117 10.3863 1.57117 10.4729 1.83117C11.7996 5.80451 11.7996 10.1778 10.4729 14.1445C10.4063 14.3645 10.2063 14.4978 9.99961 14.4978Z" fill="black"/>
<path d="M8 11.4672C6.14 11.4672 4.28667 11.2072 2.5 10.6805C2.49333 10.9472 2.27333 11.1672 2 11.1672C1.72667 11.1672 1.5 10.9405 1.5 10.6672V10.0005C1.5 9.84052 1.58 9.68718 1.70667 9.59385C1.84 9.50052 2.00667 9.47385 2.16 9.52718C5.92667 10.7805 10.08 10.7805 13.8467 9.52718C14 9.47385 14.1667 9.50052 14.3 9.59385C14.4333 9.68718 14.5067 9.84052 14.5067 10.0005V10.6672C14.5067 10.9405 14.28 11.1672 14.0067 11.1672C13.7333 11.1672 13.5133 10.9538 13.5067 10.6805C11.7133 11.2072 9.86 11.4672 8 11.4672Z" fill="black"/>
<path d="M14 6.49958C13.9467 6.49958 13.8934 6.49292 13.84 6.47292C10.0734 5.21958 5.92002 5.21958 2.15335 6.47292C1.88669 6.55958 1.60669 6.41958 1.52002 6.15958C1.44002 5.89292 1.58002 5.61292 1.84002 5.52625C5.81335 4.19958 10.1867 4.19958 14.1534 5.52625C14.4134 5.61292 14.56 5.89958 14.4667 6.15958C14.4067 6.36625 14.2067 6.49958 14 6.49958Z" fill="black"/>
</svg>
