<svg width="61" height="60" viewBox="0 0 61 60" fill="none" xmlns="http://www.w3.org/2000/svg">
<rect x="0.956055" width="59.7585" height="59.7585" rx="29.8793" fill="white"/>
<path d="M44.4984 49.8034C45.4128 36.39 45.0974 33.7095 42.9439 29.4327C41.9175 27.3942 39.8229 26.1242 37.5409 26.0825C31.2257 25.967 25.4729 28.1369 20.5938 32.016C18.5434 33.6461 17.1824 35.9955 16.8381 38.5922C16.3137 42.5476 16.441 42.232 19.0061 52.8311C20.5435 59.1394 43.0776 56.5292 44.4984 49.8034Z" fill="white"/>
<path d="M44.5014 49.8063C43.3238 55.3651 27.718 58.1074 21.4756 55.3321C22.5709 55.5463 23.7073 55.6616 24.8686 55.6616C34.3722 55.6616 42.0803 47.9533 42.0803 38.4415C42.0803 33.591 40.0709 29.2016 36.8428 26.0804C37.0732 26.0722 37.312 26.0722 37.5427 26.0804C39.8238 26.1216 41.9156 27.3898 42.9451 29.4321C45.0946 33.7062 45.4156 36.391 44.5014 49.8063Z" fill="#FFDFEE"/>
<path d="M28.0767 56.7577C22.7724 56.7577 19.2765 55.3326 18.6858 52.9095C18.3765 51.6323 18.1031 50.5145 17.8618 49.5277C16.1106 42.3692 16.0423 42.0902 16.5115 38.5492C16.8658 35.8759 18.243 33.464 20.3887 31.7583C25.4714 27.7178 31.4143 25.6477 37.5469 25.7539C39.9829 25.7981 42.1636 27.1508 43.238 29.2853C45.5015 33.7817 45.7243 36.6608 44.8268 49.8268C44.826 49.8421 44.8236 49.8574 44.8208 49.8727C43.9526 53.9815 35.6972 56.6435 28.546 56.7545C28.3884 56.7569 28.2315 56.7577 28.0767 56.7577ZM37.0732 26.4085C31.2498 26.4085 25.6327 28.4312 20.7989 32.2746C18.7871 33.8734 17.4967 36.1325 17.1646 38.636C16.7114 42.054 16.7452 42.1907 18.5016 49.3708C18.7433 50.3584 19.0171 51.4771 19.3259 52.7542C19.8479 54.8951 23.3804 56.1859 28.5359 56.0958C35.4491 55.9888 43.3687 53.4177 44.1713 49.7585C45.1059 36.0416 44.7166 33.6868 42.6493 29.5812C41.6855 27.6663 39.726 26.452 37.5349 26.4134C37.3813 26.4101 37.2268 26.4085 37.0732 26.4085Z" fill="black"/>
<path d="M35.0731 22.4688V31.6779C33.7249 35.1946 30.7858 34.5271 27.0176 31.6779L27.0177 22.4688H35.0731Z" fill="white"/>
<path d="M32.1673 34.4027C30.7603 34.4027 28.999 33.5904 26.8192 31.9426C26.7367 31.8798 26.6885 31.7825 26.6885 31.6796V22.4704C26.6885 22.2886 26.8361 22.1406 27.0178 22.1406H35.0734C35.2551 22.1406 35.4027 22.2886 35.4027 22.4704V31.6796C35.4027 31.7198 35.3955 31.76 35.381 31.7978C34.861 33.1537 34.0773 33.9901 33.0507 34.2837C32.7733 34.3625 32.4789 34.4027 32.1673 34.4027ZM27.3471 31.5147C29.7357 33.2977 31.5927 34.0183 32.8694 33.6499C33.6841 33.4167 34.2977 32.7524 34.744 31.6176V22.8001H27.3471V31.5147Z" fill="black"/>
<path d="M27.0369 27.1562C27.0369 27.1562 26.2397 29.6521 32.8605 32.2519V36.7582C32.8605 36.7582 27.2103 33.6384 25.6504 31.1773C24.0905 28.7161 27.0369 27.1562 27.0369 27.1562Z" fill="white"/>
<path d="M32.8607 37.0894C32.806 37.0894 32.7509 37.0758 32.7014 37.0484C32.4678 36.9189 26.9593 33.8581 25.3725 31.3545C24.8972 30.605 24.7549 29.8522 24.9499 29.1171C25.3243 27.7057 26.8197 26.8999 26.8833 26.8661C27.0011 26.8042 27.1458 26.8186 27.2488 26.9047C27.3497 26.9891 27.3903 27.1259 27.3529 27.2513C27.3417 27.2964 26.8434 29.5369 32.9809 31.9464C33.1072 31.9955 33.19 32.1177 33.19 32.2528V36.7597C33.19 36.8763 33.1285 36.9841 33.028 37.0436C32.9765 37.0742 32.9186 37.0894 32.8607 37.0894ZM26.7124 27.7684C26.3074 28.0805 25.7658 28.6064 25.5856 29.2892C25.4409 29.8385 25.5563 30.4144 25.929 31.0022C27.1619 32.9469 31.1368 35.3772 32.5314 36.1919V32.4764C27.897 30.6146 26.8893 28.7528 26.7124 27.7684Z" fill="black"/>
<path d="M33.311 26.0859C33.311 26.0859 35.4602 30.4176 32.8604 32.2548L35.7028 34.9239C36.0317 32.2113 35.8157 29.2493 35.322 26.1602L33.311 26.0859Z" fill="white"/>
<path d="M35.7031 35.2522C35.6207 35.2522 35.5399 35.2208 35.4775 35.1629L32.635 32.4937C32.563 32.4253 32.5252 32.3288 32.532 32.2307C32.5389 32.1318 32.5895 32.0409 32.6704 31.9838C35.0127 30.3295 33.0363 26.2722 33.0162 26.2312C32.9647 26.1274 32.9716 26.0036 33.0347 25.9063C33.0974 25.8089 33.2112 25.7414 33.3234 25.7559L35.3344 25.8298C35.4916 25.8355 35.6227 25.9513 35.6476 26.1065C36.2049 29.5928 36.33 32.4897 36.03 34.9619C36.0152 35.0857 35.9323 35.1895 35.8153 35.2321C35.7787 35.2457 35.7409 35.2522 35.7031 35.2522ZM33.3632 32.2733L35.4446 34.2276C35.6372 32.0264 35.5037 29.4802 35.0392 26.4781L33.8244 26.433C34.2997 27.6136 35.2338 30.5973 33.3632 32.2733Z" fill="black"/>
<path d="M32.8608 32.25V35.4737L33.8777 37.1376L34.7558 36.9296L34.9543 34.2158L32.8608 32.25Z" fill="#953461"/>
<path d="M33.8775 37.4692C33.7645 37.4692 33.6572 37.4105 33.5964 37.3115L32.5795 35.6476C32.5477 35.5953 32.5312 35.5358 32.5312 35.4755V32.2513C32.5312 32.1202 32.6093 32.0012 32.7299 31.9489C32.8497 31.8967 32.9905 31.9216 33.0862 32.0109L35.1796 33.9772C35.252 34.0456 35.2898 34.1429 35.2825 34.2418L35.0843 36.9553C35.0738 37.0984 34.9717 37.2182 34.8317 37.252L33.9535 37.4603C33.9282 37.4659 33.9029 37.4692 33.8775 37.4692ZM33.1899 35.383L34.0339 36.7639L34.4449 36.6665L34.6142 34.3504L33.1899 33.0129V35.383Z" fill="black"/>
<path d="M33.8774 37.1416L33.9077 46.3273C33.9047 46.4169 33.9225 46.5059 33.9596 46.5875L35.5522 50.0879C35.7671 50.5603 36.4461 50.5365 36.6274 50.0502L37.7473 44.8044C37.7864 44.6995 37.7945 44.5855 37.7704 44.4762L34.7556 36.9336L33.8774 37.1416Z" fill="#953461"/>
<path d="M36.0796 50.7589C35.7181 50.7589 35.4033 50.557 35.2525 50.2257L33.6597 46.7249C33.6022 46.5978 33.5741 46.4579 33.5785 46.3179L33.5483 37.1433C33.5479 36.9905 33.6529 36.857 33.8017 36.8216L34.6799 36.6133C34.8403 36.5787 35.0012 36.6608 35.0619 36.812L38.0765 44.3548C38.13 44.5776 38.1176 44.7553 38.0564 44.9202L36.9498 50.1203C36.8051 50.5184 36.4898 50.7452 36.1138 50.7581C36.1026 50.7589 36.0909 50.7589 36.0796 50.7589ZM34.2078 37.4031L34.2372 46.3276C34.236 46.3775 34.2436 46.4169 34.2597 46.4514L35.8525 49.9522C35.9176 50.0954 36.0523 50.1002 36.0909 50.1002C36.1307 50.0986 36.2642 50.0825 36.3193 49.9362L37.4255 44.736C37.4561 44.6443 37.4593 44.5953 37.4488 44.5478L34.5556 37.3202L34.2078 37.4031Z" fill="black"/>
<path d="M36.2026 23.1796L36.1967 26.3568C36.1945 27.1211 35.6927 27.8839 34.6912 28.4659C32.6731 29.6387 29.3856 29.64 27.3519 28.4659C26.3309 27.8764 25.8215 27.1025 25.8237 26.3295L25.8297 23.1523C25.8275 23.9253 26.3368 24.6993 27.3578 25.2888C29.3915 26.4629 32.6791 26.4615 34.6972 25.2887C35.6986 24.7068 36.2004 23.944 36.2026 23.1796Z" fill="#953461"/>
<path d="M36.2035 24.2656L36.196 26.3547C36.196 27.1211 35.6926 27.8838 34.6893 28.4662C32.6717 29.6385 29.3841 29.6385 27.3514 28.4662C26.3294 27.8763 25.8223 27.1023 25.8223 26.3284L25.826 25.3928C25.8485 26.1443 26.3558 26.8919 27.3514 27.4668C29.3841 28.6391 32.6717 28.6391 34.6893 27.4668C35.6926 26.8844 36.196 26.1217 36.196 25.359L36.1998 24.337C36.2035 24.3144 36.2035 24.2882 36.2035 24.2656Z" fill="#7F214D"/>
<path d="M34.6708 21.0386C36.7045 22.2127 36.7129 24.117 34.6971 25.2884C32.679 26.4612 29.3915 26.4626 27.3578 25.2884C25.3264 24.1157 25.3204 22.2127 27.3385 21.0399C29.3543 19.8685 32.6395 19.8658 34.6708 21.0386Z" fill="white"/>
<path d="M31.0268 29.6675C29.6383 29.6675 28.2478 29.3611 27.187 28.7491C26.0929 28.117 25.4917 27.2572 25.4941 26.3267L25.5002 23.1549C25.5002 23.1525 25.5002 23.1509 25.5002 23.1492C25.5006 22.9675 25.6482 22.8203 25.8295 22.8203C26.0113 22.8211 26.1592 22.9691 26.1588 23.1509V23.1525C26.158 23.8361 26.6418 24.4931 27.5224 25.0014C29.4614 26.1209 32.6059 26.1201 34.5313 25.0022C35.3946 24.5003 35.8711 23.8521 35.8731 23.1766C35.8735 22.9948 36.0476 22.8629 36.2032 22.8477C36.385 22.8485 36.5322 22.9964 36.5318 23.1782L36.5257 26.3557C36.5233 27.2749 35.9306 28.125 34.8562 28.7483C33.8026 29.3611 32.4157 29.6675 31.0268 29.6675ZM26.156 24.7513L26.1528 26.3284C26.1512 27.0128 26.6353 27.6698 27.5168 28.1781C29.4558 29.2992 32.6007 29.2984 34.5252 28.1789C35.389 27.6778 35.8651 27.0296 35.8671 26.3541L35.8699 24.7738C35.6073 25.0665 35.2691 25.3351 34.8626 25.5716C32.7539 26.7972 29.3134 26.7964 27.1927 25.5724C26.7721 25.3295 26.4246 25.0528 26.156 24.7513Z" fill="black"/>
<path d="M31.0319 26.4917C29.643 26.4917 28.2529 26.1861 27.1925 25.5741C26.1024 24.9444 25.5012 24.0871 25.5 23.1598C25.4988 22.2366 26.0927 21.3825 27.1724 20.7552C29.2787 19.5303 32.7155 19.5295 34.8355 20.7528C35.928 21.3841 36.5304 22.243 36.5316 23.1711C36.5328 24.0935 35.9401 24.9468 34.8624 25.5733C33.8081 26.1861 32.4208 26.4917 31.0319 26.4917ZM31.0013 20.4858C29.7331 20.4858 28.466 20.7648 27.5037 21.3246C26.6356 21.8288 26.1579 22.4802 26.1587 23.159C26.1599 23.841 26.644 24.4964 27.5222 25.0031C29.4612 26.1226 32.6058 26.1218 34.5311 25.0039C35.3972 24.5005 35.8737 23.8498 35.8729 23.1719C35.8717 22.4883 35.3864 21.832 34.5057 21.3238C33.5379 20.7648 32.2688 20.4858 31.0013 20.4858Z" fill="black"/>
<path d="M25.2361 18.7967C26.2209 19.6467 26.8985 20.7803 27.157 22.028C27.4311 25.4941 34.3012 25.5281 34.8648 22.028C35.1116 20.7982 35.7578 19.6724 36.7302 18.8481C38.7889 17.103 40.0393 14.4346 39.8405 11.4814C39.5451 7.09242 35.9625 3.53265 31.5718 3.26326C26.4286 2.94774 22.165 7.02361 22.165 12.0942C22.165 14.7735 23.3553 17.1737 25.2361 18.7967Z" fill="white"/>
<path d="M36.7317 18.849C35.7562 19.6734 35.1114 20.7998 34.8666 22.0283C34.3033 25.5177 27.4836 25.4933 27.1611 22.0691C32.6341 21.6487 36.9521 16.8206 36.9521 10.9355C36.9521 8.34389 36.1154 5.95229 34.7074 4.05859C37.5643 5.385 39.6171 8.20106 39.8416 11.4824C40.0375 14.4331 38.7887 17.1022 36.7317 18.849Z" fill="#FFDFEE"/>
<path d="M30.9128 24.9712C30.8319 24.9712 30.7519 24.9696 30.6719 24.9664C28.8676 24.894 26.9797 23.9651 26.8285 22.0559C26.5933 20.9324 25.9491 19.8491 25.021 19.0481C22.9964 17.3013 21.8354 14.7672 21.8354 12.0963C21.8354 9.57509 22.889 7.13748 24.7258 5.40919C26.5884 3.65678 29.0289 2.77776 31.5919 2.93619C36.1736 3.21767 39.861 6.88253 40.169 11.461C40.3677 14.4109 39.1919 17.1952 36.9433 19.1012C36.0462 19.862 35.4225 20.9252 35.1876 22.0953C34.8664 24.0906 32.7927 24.9712 30.9128 24.9712ZM31.0081 3.57716C28.8274 3.57716 26.7742 4.38702 25.1774 5.88931C23.4471 7.51707 22.4941 9.72146 22.4941 12.0963C22.4941 14.5758 23.5722 16.9273 25.4513 18.5495C26.4887 19.4446 27.2089 20.6574 27.4795 21.9634C27.6046 23.5108 29.1849 24.2474 30.6984 24.3085C32.3688 24.3624 34.2664 23.674 34.5394 21.9779C34.8056 20.6509 35.5073 19.455 36.517 18.5993C38.6044 16.8292 39.6961 14.2444 39.512 11.5052C39.2257 7.2565 35.8037 3.85462 31.5517 3.59405C31.37 3.58279 31.1886 3.57716 31.0081 3.57716Z" fill="black"/>
</svg>
