<svg width="20" height="20" viewBox="0 0 20 20" fill="none" xmlns="http://www.w3.org/2000/svg">
<path d="M13.666 14.9446H10.466L6.906 17.3126C6.378 17.6646 5.66601 17.2886 5.66601 16.6486V14.9446C3.26602 14.9446 1.66602 13.3446 1.66602 10.9446V6.14453C1.66602 3.74453 3.26602 2.14453 5.66601 2.14453H13.666C16.066 2.14453 17.666 3.74453 17.666 6.14453V10.9446C17.666 13.3446 16.066 14.9446 13.666 14.9446Z" stroke="black" stroke-miterlimit="10" stroke-linecap="round" stroke-linejoin="round"/>
<path d="M9.66709 9.2875V9.11953C9.66709 8.57553 10.0031 8.28752 10.3391 8.05552C10.6671 7.83152 10.9951 7.54353 10.9951 7.01553C10.9951 6.27953 10.4031 5.6875 9.66709 5.6875C8.93109 5.6875 8.33911 6.27953 8.33911 7.01553" stroke="black" stroke-linecap="round" stroke-linejoin="round"/>
<path fill-rule="evenodd" clip-rule="evenodd" d="M9.66361 11.2008H9.67081H9.66361Z" fill="black"/>
<path d="M9.66361 11.2008H9.67081" stroke="black" stroke-linecap="round" stroke-linejoin="round"/>
</svg>
