<svg width="14" height="14" viewBox="0 0 14 14" fill="none" xmlns="http://www.w3.org/2000/svg">
<path d="M3.26013 6.49023C0.550659 6.68129 0.550659 10.6239 3.26013 10.815H4.37174" stroke="#09632E" stroke-width="0.916667" stroke-miterlimit="10" stroke-linecap="round" stroke-linejoin="round"/>
<path d="M10.1668 4.68359C12.6737 5.00201 13.6869 8.34254 11.7879 10.0041C11.209 10.531 10.4621 10.8204 9.68054 10.8146H9.62842" stroke="#09632E" stroke-width="0.916667" stroke-miterlimit="10" stroke-linecap="round" stroke-linejoin="round"/>
<path d="M3.28924 6.49032C1.8245 2.42032 6.37501 0.272428 8.81238 2.19453" stroke="#09632E" stroke-width="0.916667" stroke-miterlimit="10" stroke-linecap="round" stroke-linejoin="round"/>
<path d="M9.89494 9.62325C9.89494 10.0517 9.8023 10.4569 9.62861 10.8159C9.5823 10.9201 9.53022 11.0185 9.47232 11.1112C8.97443 11.9506 8.05389 12.518 7.00021 12.518C5.94652 12.518 5.02598 11.9506 4.52809 11.1112C4.47019 11.0185 4.41811 10.9201 4.3718 10.8159C4.19811 10.4569 4.10547 10.0517 4.10547 9.62325C4.10547 8.02536 5.40231 6.72852 7.00021 6.72852C8.5981 6.72852 9.89494 8.02536 9.89494 9.62325Z" stroke="#09632E" stroke-width="0.916667" stroke-miterlimit="10" stroke-linecap="round" stroke-linejoin="round"/>
<path d="M6.09717 9.62303L6.67032 10.1962L7.90348 9.05566" stroke="#09632E" stroke-width="0.916667" stroke-linecap="round" stroke-linejoin="round"/>
</svg>
