<svg width="14" height="14" viewBox="0 0 14 14" fill="none" xmlns="http://www.w3.org/2000/svg">
<path d="M3.20622 6.4375C0.497667 6.62849 0.497667 10.5698 3.20622 10.7608H4.31742" stroke="#744A1B" stroke-miterlimit="10" stroke-linecap="round" stroke-linejoin="round"/>
<path d="M10.1105 4.63281C12.6165 4.95113 13.6293 8.29051 11.731 9.95153C11.1523 10.4782 10.4057 10.7676 9.62435 10.7618H9.57227" stroke="#744A1B" stroke-miterlimit="10" stroke-linecap="round" stroke-linejoin="round"/>
<path d="M3.23445 6.43588C1.77021 2.36727 6.31919 0.220107 8.75573 2.14156" stroke="#744A1B" stroke-miterlimit="10" stroke-linecap="round" stroke-linejoin="round"/>
<path d="M7.50632 10.1899L6.28516 8.96875" stroke="#744A1B" stroke-miterlimit="10" stroke-linecap="round" stroke-linejoin="round"/>
<path d="M7.4955 8.98047L6.26855 10.2074" stroke="#744A1B" stroke-miterlimit="10" stroke-linecap="round" stroke-linejoin="round"/>
<path d="M9.83828 9.56563C9.83828 9.9939 9.74568 10.399 9.57206 10.7578C9.52576 10.862 9.47367 10.9604 9.41579 11.053C8.91807 11.8922 7.99786 12.4594 6.94453 12.4594C5.89121 12.4594 4.97099 11.8922 4.47327 11.053C4.41539 10.9604 4.36331 10.862 4.31701 10.7578C4.14338 10.399 4.05078 9.9939 4.05078 9.56563C4.05078 7.96828 5.34718 6.67188 6.94453 6.67188C8.54188 6.67188 9.83828 7.96828 9.83828 9.56563Z" stroke="#744A1B" stroke-miterlimit="10" stroke-linecap="round" stroke-linejoin="round"/>
</svg>
