<svg width="40" height="41" viewBox="0 0 40 41" fill="none" xmlns="http://www.w3.org/2000/svg">
<path d="M39.4597 20.1255C39.4597 30.9678 30.7348 39.751 19.9798 39.751C9.22484 39.751 0.5 30.9678 0.5 20.1255C0.5 9.2832 9.22484 0.5 19.9798 0.5C30.7348 0.5 39.4597 9.2832 39.4597 20.1255Z" fill="url(#paint0_linear_7393_40965)" stroke="#D6D0D0"/>
<g clip-path="url(#clip0_7393_40965)">
<path d="M11.3151 17.9531L9.57451 22.8492C9.46956 23.1461 9.29525 23.3808 9.05159 23.5547C8.80793 23.7286 8.53481 23.8152 8.23223 23.8152H3L4.7406 18.9192C4.84555 18.6223 5.01986 18.3875 5.26352 18.2136C5.50718 18.0397 5.7803 17.9531 6.08287 17.9531H11.3145H11.3151ZM5.66675 22.347H7.60191L8.64836 19.4207H6.7132L5.66675 22.347Z" fill="white"/>
<path d="M18.3898 18.2657C18.2474 18.0573 18.0529 17.9531 17.8061 17.9531H12.3799L11.8583 19.4213H16.7965C16.7965 19.9197 16.4111 20.3277 15.9274 20.3478V20.349H11.5287L10.2969 23.8146H12.445L13.2226 21.6176H14.2138L15.3069 23.8146H17.4551L16.362 21.6176H16.5197C16.8217 21.6176 17.0948 21.5316 17.3391 21.3571C17.5833 21.1839 17.7576 20.9485 17.8626 20.6516L18.4733 18.938C18.5604 18.6976 18.5322 18.4735 18.3904 18.2651L18.3898 18.2657Z" fill="white"/>
<path d="M17.6875 23.8152L19.7712 17.9531H25.1974C25.4441 17.9531 25.6387 18.0573 25.7804 18.2657C25.9222 18.4741 25.9504 18.6982 25.8639 18.938L25.3919 20.2637C25.225 20.6491 24.9752 20.8543 24.6419 20.8795H24.6787C24.6972 20.8857 24.7143 20.8908 24.7297 20.8939C24.745 20.897 24.7653 20.902 24.7898 20.9083C24.8144 20.9146 24.8377 20.924 24.8592 20.9366C24.8807 20.9491 24.9022 20.9667 24.9242 20.9887C24.9457 21.0106 24.9629 21.0357 24.9752 21.0646C24.9875 21.0929 24.9967 21.128 25.0028 21.1688C25.0089 21.2102 25.0077 21.2586 24.9979 21.3157C24.9887 21.3722 24.9746 21.4325 24.9562 21.4959L24.4744 22.8498C24.3694 23.1467 24.1951 23.3815 23.9514 23.5553C23.7078 23.7292 23.4347 23.8158 23.1321 23.8158H17.6875V23.8152ZM22.9474 21.4004H20.6047L20.2622 22.3476H22.6049L22.9474 21.4004ZM21.2994 19.4213L20.9385 20.3497H23.2812L23.6519 19.4213H21.3H21.2994Z" fill="white"/>
<path d="M25.168 23.8155L27.2517 17.9629H29.3998L27.3161 23.8155H25.168Z" fill="white"/>
<path d="M36.0931 20.5089C35.3732 21.2007 34.3175 21.9043 33.1201 22.4918C32.9771 22.5621 32.8322 22.6306 32.6892 22.6946C32.6622 22.7065 32.6358 22.7191 32.6088 22.7304C31.7784 23.102 30.9566 23.38 30.2256 23.5357C30.2072 23.5395 30.1888 23.5432 30.1704 23.547C29.7543 23.633 29.3823 23.6757 29.0644 23.6757C28.4384 23.6757 28.0192 23.5112 27.8688 23.1905C27.4748 22.3487 29.0503 20.7694 31.5348 19.5172L31.6213 19.4739L31.6133 19.4958L31.5753 19.6013L31.4869 19.8499L31.4409 19.9792C29.3332 21.0896 28.2573 22.2552 28.4685 22.7078C28.6121 23.0141 29.3486 23.0398 30.3907 22.7756C30.4104 22.7705 30.4306 22.7655 30.4503 22.7599C31.0738 22.596 31.7698 22.3399 32.4695 22.0173C32.5702 21.9715 32.6782 21.9206 32.82 21.851C32.8304 21.8466 32.839 21.8422 32.8476 21.8372L32.8574 21.8321C32.8862 21.8177 32.9151 21.8033 32.9439 21.7888C35.1762 20.6715 36.4257 19.408 36.1962 18.9177C36.1477 18.8142 36.0299 18.7413 35.8464 18.7018L35.8335 18.6993L35.8654 18.6095L35.8795 18.5694L35.955 18.3559L35.9875 18.2637C36.4816 18.3007 36.8106 18.4658 36.9395 18.7413C37.1389 19.1663 36.8382 19.794 36.0931 20.5089Z" fill="#F89A33"/>
<path d="M36.0943 17.9625L35.9881 18.2645L35.9556 18.3567L35.8801 18.5702L35.866 18.6103L35.8341 18.7001L35.7936 18.8137L35.5763 19.4307L33.7884 19.4213L32.9445 21.7896C32.9157 21.8041 32.8868 21.8185 32.858 21.8329L32.8482 21.8379C32.8396 21.843 32.831 21.8474 32.8206 21.8518C32.6788 21.9214 32.5708 21.9723 32.4701 22.0181C31.7704 22.3407 31.0744 22.5968 30.4509 22.7607L30.4662 22.7174L31.4415 19.98L31.4875 19.8507L31.5759 19.6021L31.6139 19.4966L31.6219 19.4747L31.6403 19.4213H29.4922L30.0108 17.9531C32.715 17.9531 34.7422 17.9563 36.0943 17.9625Z" fill="white"/>
<path d="M30.2246 23.5358C30.9556 23.3801 31.7774 23.1021 32.6078 22.7305L32.2223 23.8145H30.0742L30.1694 23.5471C30.1878 23.5433 30.2062 23.5396 30.2246 23.5358Z" fill="white"/>
</g>
<defs>
<linearGradient id="paint0_linear_7393_40965" x1="39.9597" y1="40.2941" x2="-1.53333" y2="16.3314" gradientUnits="userSpaceOnUse">
<stop stop-color="#953461"/>
<stop offset="1" stop-color="#341937"/>
</linearGradient>
<clipPath id="clip0_7393_40965">
<rect width="34" height="5.86207" fill="white" transform="translate(3 17.9531)"/>
</clipPath>
</defs>
</svg>
