<svg width="116" height="20" viewBox="0 0 116 20" fill="none" xmlns="http://www.w3.org/2000/svg">
<path d="M28.3692 0L22.4307 16.7041C22.0726 17.7171 21.4779 18.518 20.6466 19.1113C19.8153 19.7045 18.8835 20 17.8511 20H0L5.93852 3.29586C6.29659 2.2829 6.89128 1.48196 7.72258 0.888746C8.55389 0.295535 9.48571 0 10.518 0H28.3671H28.3692ZM9.09833 14.9909H15.7006L19.2709 5.00696H12.6686L9.09833 14.9909Z" fill="#010101"/>
<path d="M52.5057 1.0665C52.0199 0.355498 51.3561 0 50.5143 0H32.0015L30.2216 5.0091H47.0697C47.0697 6.7095 45.7547 8.10151 44.1047 8.17004V8.17432H29.0971L24.8945 19.9979H32.2234L34.8765 12.5024H38.2583L41.9877 19.9979H49.3166L45.5872 12.5024H46.1254C47.1556 12.5024 48.0874 12.209 48.9208 11.6137C49.7542 11.0226 50.3489 10.2195 50.707 9.20655L52.7905 3.3601C53.0878 2.53989 52.9915 1.77535 52.5078 1.06435L52.5057 1.0665Z" fill="#010101"/>
<path d="M50.1055 20L57.2145 0H75.7274C76.5691 0 77.2329 0.355498 77.7166 1.0665C78.2004 1.77749 78.2967 2.54203 78.0014 3.3601L76.3912 7.88307C75.8216 9.19799 74.9693 9.89828 73.8323 9.98394H73.958C74.0208 10.0054 74.0794 10.0225 74.1318 10.0332C74.1841 10.0439 74.2532 10.061 74.337 10.0824C74.4207 10.1039 74.5003 10.136 74.5736 10.1788C74.6469 10.2217 74.7202 10.2816 74.7955 10.3566C74.8688 10.4315 74.9275 10.5172 74.9693 10.6157C75.0112 10.7121 75.0426 10.832 75.0636 10.9712C75.0845 11.1125 75.0803 11.2774 75.0468 11.4723C75.0154 11.6651 74.9672 11.8706 74.9044 12.0869L73.2607 16.7063C72.9026 17.7192 72.3079 18.5202 71.4766 19.1134C70.6453 19.7066 69.7135 20.0021 68.6811 20.0021H50.1055V20ZM68.0508 11.7614H60.0581L58.8897 14.993H66.8824L68.0508 11.7614ZM62.4285 5.0091L61.1973 8.17646H69.19L70.4547 5.0091H62.4306H62.4285Z" fill="#010101"/>
<path d="M75.6289 19.9991L82.738 0.03125H90.0669L82.9578 19.9991H75.6289Z" fill="#010101"/>
<path d="M112.907 8.72285C110.451 11.0828 106.849 13.4835 102.764 15.488C102.276 15.7279 101.782 15.9613 101.294 16.1797C101.202 16.2204 101.112 16.2633 101.02 16.3018C98.1867 17.5696 95.3829 18.5183 92.8889 19.0494C92.8261 19.0623 92.7633 19.0751 92.7005 19.088C91.2808 19.3814 90.0118 19.527 88.9271 19.527C86.7913 19.527 85.3611 18.9659 84.8481 17.8716C83.5037 14.9998 88.879 9.6116 97.3554 5.33919L97.6506 5.19142L97.6234 5.26638L97.4936 5.62616L97.1921 6.47421L97.035 6.91537C89.8443 10.7038 86.1736 14.6807 86.8939 16.2247C87.3839 17.2698 89.8966 17.3576 93.4522 16.456C93.5192 16.4389 93.5883 16.4217 93.6553 16.4025C95.7828 15.8435 98.1574 14.9698 100.545 13.869C100.888 13.7127 101.256 13.5392 101.74 13.3015C101.776 13.2865 101.805 13.2715 101.834 13.2544L101.868 13.2373C101.966 13.188 102.065 13.1387 102.163 13.0895C109.779 9.27751 114.042 4.96656 113.259 3.294C113.094 2.94065 112.692 2.69222 112.066 2.55731L112.022 2.54874L112.13 2.2425L112.179 2.10544L112.436 1.37731L112.547 1.0625C114.233 1.18885 115.355 1.75208 115.795 2.69222C116.475 4.14206 115.449 6.28362 112.907 8.72285Z" fill="#F89A33"/>
<path d="M112.91 0.0321234L112.547 1.06221L112.436 1.37702L112.179 2.10515L112.131 2.24221L112.022 2.54845L111.884 2.93607L111.142 5.04123L105.043 5.0091L102.163 13.0892C102.065 13.1385 101.967 13.1877 101.868 13.237L101.835 13.2541C101.805 13.2712 101.776 13.2862 101.74 13.3012C101.257 13.5389 100.888 13.7124 100.545 13.8687C98.1576 14.9695 95.783 15.8432 93.6556 16.4022L93.7079 16.2544L97.0352 6.91509L97.1923 6.47393L97.4938 5.62587L97.6236 5.26609L97.6509 5.19113L97.7137 5.0091H90.3848L92.1542 0C101.38 0 108.297 0.0107078 112.91 0.0321234Z" fill="#010101"/>
<path d="M92.888 19.0484C95.382 18.5173 98.1858 17.5686 101.019 16.3008L99.7039 19.9992H92.375L92.6996 19.0869C92.7624 19.0741 92.8252 19.0612 92.888 19.0484Z" fill="#010101"/>
</svg>
