<svg width="16" height="16" viewBox="0 0 16 16" fill="none" xmlns="http://www.w3.org/2000/svg">
<g clip-path="url(#clip0_8584_22255)">
<path d="M7.08033 9.01903C7.067 9.01903 7.047 9.01903 7.03367 9.01903C7.01367 9.01903 6.987 9.01903 6.967 9.01903C5.45365 8.97236 4.32031 7.79236 4.32031 6.33901C4.32031 4.85901 5.52698 3.65234 7.007 3.65234C8.487 3.65234 9.69367 4.85901 9.69367 6.33901C9.687 7.79903 8.547 8.97236 7.10033 9.01903C7.087 9.01903 7.087 9.01903 7.08033 9.01903ZM7.00033 4.64568C6.067 4.64568 5.31365 5.40568 5.31365 6.33234C5.31365 7.2457 6.027 7.9857 6.93367 8.01903C6.95367 8.01236 7.02033 8.01236 7.087 8.01903C7.98033 7.97236 8.68033 7.23903 8.687 6.33234C8.687 5.40568 7.93367 4.64568 7.00033 4.64568Z" fill="black"/>
<path d="M6.99923 15.1669C5.20591 15.1669 3.49257 14.5002 2.16591 13.2869C2.04591 13.1802 1.99257 13.0202 2.00591 12.8669C2.09257 12.0735 2.58591 11.3335 3.40591 10.7869C5.39257 9.46688 8.61257 9.46688 10.5926 10.7869C11.4126 11.3402 11.9059 12.0735 11.9926 12.8669C12.0126 13.0269 11.9526 13.1802 11.8326 13.2869C10.5059 14.5002 8.79257 15.1669 6.99923 15.1669ZM3.05257 12.7335C4.15924 13.6602 5.55257 14.1669 6.99923 14.1669C8.4459 14.1669 9.83923 13.6602 10.9459 12.7335C10.8259 12.3269 10.5059 11.9335 10.0326 11.6135C8.39257 10.5202 5.61257 10.5202 3.95924 11.6135C3.48591 11.9335 3.17257 12.3269 3.05257 12.7335Z" fill="black"/>
<path d="M6.9987 15.1654C3.04536 15.1654 -0.167969 11.952 -0.167969 7.9987C-0.167969 4.04536 3.04536 0.832031 6.9987 0.832031C10.952 0.832031 14.1654 4.04536 14.1654 7.9987C14.1654 11.952 10.952 15.1654 6.9987 15.1654ZM6.9987 1.83203C3.5987 1.83203 0.832031 4.5987 0.832031 7.9987C0.832031 11.3987 3.5987 14.1654 6.9987 14.1654C10.3987 14.1654 13.1654 11.3987 13.1654 7.9987C13.1654 4.5987 10.3987 1.83203 6.9987 1.83203Z" fill="black"/>
</g>
<defs>
<clipPath id="clip0_8584_22255">
<rect width="16" height="16" fill="white"/>
</clipPath>
</defs>
</svg>
