<svg width="61" height="61" viewBox="0 0 61 61" fill="none" xmlns="http://www.w3.org/2000/svg">
<g clip-path="url(#clip0_11503_116117)">
<rect x="0.956055" y="0.867188" width="59.7585" height="59.7585" rx="29.8793" fill="#F6F8F9"/>
<path d="M35.756 48.4418L35.756 53.1498C35.7526 54.3528 34.9596 55.554 33.3755 56.4726C30.1943 58.3173 25.0065 58.3216 21.797 56.4726C20.1866 55.5449 19.3828 54.3248 19.3863 53.1064L19.3862 48.3984C19.3828 49.6168 20.1866 50.8369 21.797 51.7647C25.0065 53.6137 30.1943 53.6093 33.3755 51.7646C34.9596 50.846 35.7526 49.6448 35.756 48.4418Z" fill="#953461"/>
<path d="M27.5936 58.1868C25.4362 58.1868 23.2768 57.712 21.6293 56.7633C19.9627 55.8031 19.0471 54.504 19.0508 53.1058V48.4104C19.0508 48.4071 19.0508 48.4039 19.0508 48.4014V48.3981C19.0512 48.2131 19.201 48.0625 19.386 48.0625C19.571 48.0633 19.7212 48.2131 19.7212 48.3981V48.412C19.7245 49.5548 20.5202 50.6419 21.9642 51.4744C25.0748 53.2655 30.1185 53.2663 33.2071 51.4752C34.6314 50.6484 35.4173 49.5703 35.4205 48.4407C35.4209 48.2557 35.5711 48.1059 35.7557 48.1059C35.9407 48.1067 36.091 48.2565 36.091 48.4415V53.15C36.0873 54.5294 35.1827 55.8121 33.5435 56.7625C31.9063 57.712 29.751 58.1868 27.5936 58.1868ZM19.7212 50.4012V53.1066C19.7184 54.2551 20.5148 55.3471 21.9642 56.1821C25.074 57.9732 30.1177 57.974 33.2071 56.1829C34.6314 55.3569 35.4173 54.2797 35.4205 53.1492V50.4233C34.9891 51.0291 34.3568 51.5833 33.5435 52.0548C30.27 53.9539 24.925 53.9531 21.6293 52.0556C20.8009 51.5775 20.1579 51.0168 19.7212 50.4012Z" fill="black"/>
<path d="M33.3378 45.0716C36.5473 46.9206 36.5642 49.9146 33.3755 51.7637C30.1943 53.6084 25.0065 53.6128 21.797 51.7638C18.5949 49.9191 18.5818 46.9185 21.763 45.0738C24.9517 43.2247 30.1357 43.2269 33.3378 45.0716Z" fill="white"/>
<path d="M27.594 53.479C25.4366 53.479 23.2772 53.0042 21.6293 52.0555C19.9684 51.0985 19.0528 49.8043 19.0508 48.4103C19.0487 47.0252 19.9521 45.7368 21.5946 44.7847C24.8693 42.8848 30.2122 42.8848 33.505 44.7815C35.1708 45.7409 36.0893 47.0367 36.0914 48.4299C36.093 49.8133 35.1884 51.101 33.5435 52.0546C31.9067 53.0042 29.7514 53.479 27.594 53.479ZM27.5457 44.0202C25.5099 44.0202 23.4765 44.4688 21.931 45.3643C20.5046 46.1919 19.72 47.2733 19.7216 48.4095C19.7228 49.5538 20.5193 50.6417 21.9641 51.4743C25.0748 53.2653 30.1185 53.2661 33.2071 51.4751C34.6363 50.6458 35.4222 49.5653 35.4205 48.4307C35.4189 47.2872 34.6199 46.1976 33.1702 45.3627C31.6169 44.4679 29.5799 44.0202 27.5457 44.0202Z" fill="black"/>
<path d="M31.0689 6.87519L30.9457 48.0241C30.9443 48.5284 30.6123 49.0322 29.9474 49.4171C28.6123 50.1903 26.4291 50.1903 25.0852 49.4172C24.4084 49.0278 24.0718 48.5177 24.0732 48.0083L24.1964 6.85938C24.195 7.36874 24.5316 7.8789 25.2084 8.26824C26.5523 9.04133 28.7355 9.04133 30.0706 8.26823C30.7354 7.88323 31.0675 7.37949 31.0689 6.87519Z" fill="#953461"/>
<path d="M27.5198 50.3278C26.5788 50.3278 25.6366 50.1215 24.9183 49.7081C24.155 49.2685 23.7362 48.6644 23.7383 48.0071L23.8615 6.85824C23.8619 6.67324 24.0121 6.52344 24.1967 6.52344H24.1979C24.3829 6.52426 24.5327 6.67488 24.5319 6.85988C24.5307 7.26672 24.8303 7.66373 25.3755 7.97725C26.607 8.68615 28.6801 8.68533 29.9027 7.97807C30.4376 7.66864 30.7327 7.27654 30.7339 6.87461C30.7344 6.68961 30.8846 6.53981 31.0692 6.53981H31.0704C31.2554 6.54063 31.4052 6.69125 31.4044 6.87625L31.2812 48.0251C31.2791 48.6759 30.8653 49.2726 30.1159 49.7073C29.4013 50.1207 28.4611 50.3278 27.5198 50.3278ZM24.5278 8.19418L24.4087 48.0087C24.4075 48.4156 24.7071 48.8126 25.2527 49.1269C26.4838 49.8342 28.5569 49.8358 29.7799 49.1269C30.314 48.8175 30.6095 48.4254 30.6108 48.0234L30.7299 8.20973C30.5874 8.33498 30.4233 8.45122 30.2387 8.55763C28.8111 9.38604 26.4793 9.38523 25.0411 8.55845C24.8475 8.44712 24.676 8.32515 24.5278 8.19418Z" fill="black"/>
<path d="M30.0546 5.46325C31.3984 6.23633 31.4099 7.49388 30.0704 8.2695C28.7353 9.0426 26.5521 9.0426 25.2083 8.26951C23.8601 7.49391 23.8617 6.23889 25.1968 5.46579C26.5363 4.69018 28.7064 4.68765 30.0546 5.46325Z" fill="white"/>
<path d="M27.6427 9.17966C26.7018 9.17966 25.7596 8.97256 25.0408 8.55917C24.2812 8.12205 23.8621 7.5212 23.8608 6.86551C23.86 6.21228 24.2746 5.61143 25.0286 5.17512C26.4816 4.3328 28.763 4.3328 30.2217 5.17185C30.983 5.61061 31.4033 6.21391 31.4041 6.87124C31.405 7.52366 30.9912 8.12286 30.2385 8.55835C29.5243 8.97256 28.5841 9.17966 27.6427 9.17966ZM27.6264 5.21442C26.8065 5.21442 25.9875 5.39451 25.3646 5.7555C24.8268 6.06657 24.5309 6.46113 24.5317 6.86469C24.5321 7.26989 24.8321 7.66527 25.3752 7.97797C26.6068 8.68687 28.6799 8.68605 29.9024 7.97879C30.439 7.66773 30.7341 7.27481 30.7333 6.87206C30.7329 6.4644 30.4325 6.06657 29.8873 5.75305C29.2631 5.39451 28.4441 5.21442 27.6264 5.21442Z" fill="black"/>
<path d="M41.012 10.5686C41.6362 10.2085 42.2441 10.0777 42.7571 10.2021L49.7122 11.8225C51.42 12.2212 51.4283 15.1265 49.7283 17.4975L42.8051 27.1237C42.2945 27.8321 41.6878 28.4019 41.0636 28.762L18.722 41.6499C17.0519 42.6133 15.6922 41.8456 15.6867 39.9282L15.6548 28.6751C15.6494 26.7576 17.0003 24.4199 18.6703 23.4565L41.012 10.5686Z" fill="white"/>
<path d="M49.7314 17.4921L42.8076 27.1234C42.2962 27.8275 41.6843 28.3976 41.064 28.7579L18.7251 41.65C17.0486 42.6056 15.6906 41.8429 15.6906 39.9233L15.6738 34.7011C18.1969 34.7346 20.8375 34.4999 23.5282 33.9634C37.1243 31.2727 46.7557 22.0772 45.0456 13.435C44.8361 12.3956 44.4757 11.4065 43.9727 10.4844L49.7147 11.8172C51.4163 12.2196 51.4247 15.1198 49.7314 17.4921Z" fill="#FFDFEE"/>
<path d="M17.3609 42.4023C17.0147 42.4023 16.6917 42.3196 16.4044 42.1543C15.7282 41.7654 15.3541 40.9747 15.3513 39.9285L15.3194 28.6754C15.3136 26.6535 16.7417 24.1813 18.5028 23.1655L40.8446 10.2776C41.5506 9.86992 42.2395 9.73158 42.8358 9.87565L49.7881 11.4948C50.42 11.643 50.8858 12.0727 51.1363 12.7391C51.6332 14.0611 51.1768 16.0519 50.0009 17.6924L43.0773 27.319C42.5378 28.0672 41.8993 28.6664 41.231 29.0519L18.8892 41.9398C18.3567 42.2468 17.8369 42.4023 17.3609 42.4023ZM42.3582 10.4904C42.0017 10.4904 41.6014 10.6157 41.1794 10.8588L18.8376 23.7466C17.2623 24.6553 15.9849 26.8655 15.9898 28.6737L16.0217 39.9269C16.0242 40.7234 16.2787 41.3087 16.7388 41.5731C17.2042 41.8416 17.8492 41.7663 18.5544 41.3586L40.8962 28.4707C41.4827 28.1327 42.0487 27.5981 42.5333 26.9269L49.4562 17.3011C50.4909 15.8579 50.9235 14.0791 50.5085 12.9748C50.3382 12.5222 50.0447 12.2438 49.6354 12.1481L42.6807 10.5281C42.578 10.5027 42.4703 10.4904 42.3582 10.4904Z" fill="black"/>
<path d="M42.7612 10.2008L49.7106 11.8201C49.8602 11.8553 50.0013 11.9081 50.1245 11.9873L46.3854 9.8124C46.262 9.74204 46.1211 9.68919 45.9715 9.65395L39.0133 8.02596C38.8525 7.98718 38.6798 7.98246 38.5024 7.99341L42.2419 10.1687C42.4217 10.1574 42.597 10.1619 42.7612 10.2008Z" fill="#953461"/>
<path d="M50.1244 12.3213C50.0671 12.3213 50.0094 12.3066 49.9562 12.2755L49.8813 12.2321C49.8117 12.1961 49.7302 12.1674 49.634 12.1453L42.6855 10.5261C42.685 10.5261 42.6842 10.5261 42.6838 10.5253C42.5708 10.4991 42.4391 10.4918 42.2635 10.5024C42.198 10.5008 42.1304 10.4909 42.0736 10.4574L38.3342 8.28157C38.2065 8.20708 38.1423 8.0581 38.1767 7.91402C38.211 7.77077 38.3351 7.66599 38.4828 7.65699C38.7214 7.64471 38.9142 7.65617 39.0918 7.69873L46.0482 9.32609C46.2344 9.37029 46.4039 9.43496 46.5516 9.51928L50.205 11.6443C50.2398 11.6632 50.2738 11.6828 50.3065 11.7041C50.4596 11.8023 50.5058 12.0053 50.4109 12.1609C50.3474 12.264 50.2373 12.3213 50.1244 12.3213ZM42.8393 9.87373L47.8225 11.0345L46.2168 10.1005C46.1272 10.0497 46.0183 10.008 45.8951 9.97932L40.3582 8.6835L42.3253 9.82788C42.5201 9.82297 42.6859 9.83607 42.8393 9.87373Z" fill="black"/>
<path d="M11.9121 26.506L11.9474 37.7525C11.9474 38.7029 12.2822 39.3717 12.8282 39.6886L16.5675 41.8633C16.0213 41.5467 15.6867 40.8778 15.6867 39.9274L15.6514 28.672C15.6514 27.8856 15.8865 27.033 16.269 26.23L12.5289 24.0547C12.1444 24.8608 11.9087 25.7174 11.9121 26.506Z" fill="#953461"/>
<path d="M16.5673 42.1987C16.5104 42.1987 16.4527 42.184 16.3999 42.1537C16.397 42.1521 16.3942 42.1505 16.3917 42.1488L12.6598 39.9787C11.9844 39.5866 11.6124 38.7967 11.6124 37.753L11.5772 26.508C11.5735 25.7066 11.7978 24.8086 12.2267 23.9106C12.2669 23.8255 12.3409 23.7617 12.4302 23.7347C12.519 23.7052 12.6168 23.7175 12.6978 23.7649L16.438 25.9399C16.5886 26.0275 16.6471 26.2166 16.5722 26.3738C16.1891 27.1768 15.9869 27.9717 15.9869 28.6724L16.0221 39.9263C16.0221 40.7187 16.2734 41.3016 16.7298 41.5693L16.7364 41.5733C16.8964 41.6667 16.9504 41.8713 16.8579 42.0309C16.7957 42.1382 16.6831 42.1987 16.5673 42.1987ZM12.6831 24.532C12.3946 25.2245 12.2448 25.9006 12.2476 26.5048L12.2828 37.7522C12.2828 38.547 12.5366 39.1315 12.9966 39.3992L15.4594 40.8309C15.3881 40.5575 15.3517 40.2546 15.3517 39.9272L15.3165 28.6732C15.3165 27.9569 15.4966 27.1654 15.8392 26.3672L12.6831 24.532Z" fill="black"/>
<path d="M18.6723 23.4526L41.0085 10.5692C41.4362 10.3225 41.8532 10.1919 42.2417 10.1675L38.5022 7.99219C38.1156 8.01604 37.6978 8.14709 37.2692 8.39438L14.9245 21.2864C13.9441 21.8513 13.0793 22.8988 12.5288 24.0536L16.269 26.2289C16.8194 25.0732 17.6847 24.0237 18.6723 23.4526Z" fill="#7F214D"/>
<path d="M16.2694 26.5633C16.2108 26.5633 16.1527 26.5478 16.1007 26.5175L12.3606 24.3425C12.21 24.2549 12.1515 24.0658 12.2264 23.9087C12.8333 22.6341 13.7559 21.5724 14.7574 20.9953L37.1021 8.10334C37.5662 7.83484 38.0307 7.68422 38.4822 7.65639C38.5465 7.65475 38.614 7.66785 38.6713 7.70141L42.4106 9.87722C42.5383 9.95171 42.6022 10.1007 42.5682 10.2448C42.5342 10.388 42.4098 10.4928 42.2624 10.5018C41.9162 10.5231 41.5507 10.6426 41.1762 10.8587L18.8402 23.7425C17.9495 24.2574 17.1228 25.2159 16.5718 26.3718C16.5317 26.4569 16.4581 26.5208 16.3684 26.5478C16.3361 26.5584 16.3025 26.5633 16.2694 26.5633ZM12.9705 23.9218L16.1306 25.7595C16.7343 24.6282 17.5861 23.6934 18.5049 23.1613L40.8414 10.2775C41.0096 10.1809 41.1778 10.0991 41.3456 10.0336L38.4257 8.33418C38.1085 8.3702 37.7766 8.48807 37.4373 8.68371L15.0922 21.5765C14.2773 22.0464 13.5152 22.8911 12.9705 23.9218Z" fill="black"/>
<path d="M24.7152 26.6154C24.6786 26.699 24.6393 26.7701 24.5974 26.8287C24.5594 26.8807 24.5134 26.9235 24.4594 26.9572C24.3982 26.9953 24.3285 27.0041 24.2505 26.9837C24.1724 26.9633 24.0732 26.95 23.9527 26.9437C23.8362 26.9311 23.6921 26.9436 23.5204 26.9815C23.3523 27.0171 23.1439 27.1123 22.8954 27.2669C22.6612 27.4126 22.4516 27.5796 22.2664 27.7678C22.0851 27.9496 21.929 28.1421 21.798 28.3453C21.6707 28.5463 21.5706 28.7526 21.4978 28.9642C21.4253 29.1717 21.3824 29.3749 21.3691 29.5738C21.3522 29.8278 21.3903 30.007 21.4835 30.1113C21.5805 30.2092 21.7116 30.2635 21.8766 30.2745C22.0452 30.2832 22.2364 30.2636 22.4502 30.2158C22.6679 30.1615 22.8889 30.1092 23.1132 30.0589C23.3411 30.0063 23.561 29.9709 23.7729 29.9528C23.9886 29.9281 24.177 29.9509 24.338 30.0211C24.5027 30.089 24.6286 30.2196 24.7159 30.4128C24.8067 30.6038 24.8396 30.8877 24.8145 31.2644C24.7879 31.6624 24.7053 32.0728 24.5666 32.4959C24.4282 32.9148 24.2387 33.3228 23.9982 33.72C23.7612 34.1149 23.4757 34.4873 23.1417 34.8372C22.8112 35.1848 22.4406 35.4864 22.03 35.7419C21.5257 36.0557 21.0753 36.2345 20.6787 36.2784C20.6075 36.2855 20.5384 36.289 20.4713 36.289C19.989 36.2886 19.8247 35.7439 20.0197 35.3027L20.0246 35.2916C20.0566 35.2271 20.0933 35.1677 20.1349 35.1134C20.1804 35.0527 20.2284 35.0066 20.2788 34.9752C20.3256 34.9461 20.3763 34.9369 20.4308 34.9476C20.4892 34.9518 20.554 34.9643 20.6251 34.9849C20.6963 35.0056 20.7778 35.0259 20.8697 35.0458C20.9616 35.0657 21.0665 35.0714 21.1845 35.0629C21.306 35.0522 21.4445 35.0208 21.5999 34.9688C21.7556 34.9125 21.9324 34.8227 22.1306 34.6994C22.3791 34.5448 22.6033 34.3667 22.8032 34.1653C23.0031 33.9638 23.1745 33.7497 23.3173 33.5228C23.4641 33.2895 23.5803 33.0488 23.6659 32.8008C23.7514 32.5528 23.8026 32.3039 23.8192 32.0541C23.8376 31.779 23.7985 31.5882 23.702 31.4819C23.6094 31.3691 23.4806 31.3072 23.3156 31.2963C23.1506 31.2854 22.9591 31.3092 22.7411 31.3677C22.5234 31.422 22.3021 31.4785 22.0772 31.5373C21.8526 31.5919 21.6325 31.6315 21.4168 31.6561C21.201 31.6808 21.0128 31.6559 20.852 31.5815C20.6913 31.507 20.5659 31.368 20.4759 31.1643C20.3898 30.9541 20.3601 30.648 20.3869 30.2458C20.4084 29.9241 20.4813 29.5805 20.6058 29.2149C20.7339 28.8472 20.9066 28.4841 21.1238 28.1257C21.3447 27.7652 21.6075 27.4231 21.9121 27.0997C22.2204 26.7739 22.5673 26.4912 22.9527 26.2513C23.385 25.9824 23.7723 25.8185 24.1145 25.7597C24.155 25.7526 24.1949 25.7468 24.234 25.7423C24.687 25.6911 24.8826 26.1913 24.7152 26.6154Z" fill="black"/>
<path d="M30.2735 29.5536C30.5567 29.3774 30.9203 29.5967 30.8964 29.9294C30.887 30.0598 30.8158 30.1778 30.7049 30.2468L27.7663 32.0753C27.0745 32.5057 26.186 31.9726 26.2402 31.1597L26.683 24.5181C26.7044 24.1969 26.8791 23.9056 27.1524 23.7356L30.8121 21.4584C31.0945 21.2827 31.4573 21.5003 31.4352 21.8322C31.4264 21.9633 31.3551 22.0822 31.2435 22.1517L27.6984 24.3575L27.4969 27.3799L29.8616 25.9086C30.1333 25.7395 30.4822 25.9489 30.461 26.2682C30.4525 26.3943 30.3839 26.5087 30.2766 26.5755L27.4326 28.3451L27.2256 31.4501L30.2735 29.5536Z" fill="black"/>
<path d="M36.1118 25.8904C36.4032 25.7092 36.7774 25.9337 36.7546 26.276C36.7455 26.4113 36.672 26.534 36.5568 26.6056L34.0032 28.1945C33.3115 28.625 32.4229 28.0919 32.4771 27.279L32.937 20.3809C32.9477 20.2207 33.0348 20.0754 33.1711 19.9906C33.516 19.776 33.9591 20.0418 33.9321 20.4472L33.4592 27.541L36.1118 25.8904Z" fill="black"/>
<path d="M39.4863 17.0228L39.2742 20.204L41.7807 18.6444C42.0631 18.4687 42.4259 18.6863 42.4038 19.0182C42.395 19.1493 42.3237 19.2682 42.2121 19.3376L39.2073 21.2073L38.9637 24.8622C38.9529 25.0232 38.8653 25.1692 38.7283 25.2545C38.3816 25.4702 37.9362 25.203 37.9634 24.7955L38.505 16.6718L42.6 14.1237C42.8824 13.948 43.2452 14.1656 43.223 14.4975C43.2143 14.6286 43.143 14.7475 43.0314 14.817L39.4863 17.0228Z" fill="black"/>
</g>
<defs>
<clipPath id="clip0_11503_116117">
<rect width="60" height="60" fill="white" transform="translate(0.956055 0.5)"/>
</clipPath>
</defs>
</svg>
