<svg width="99" height="98" viewBox="0 0 99 98" fill="none" xmlns="http://www.w3.org/2000/svg">
<rect x="8.5" y="8" width="81.67" height="81.67" rx="40.835" fill="#FEF3C7"/>
<path d="M50 54.75C53.1756 54.75 55.75 52.1756 55.75 49C55.75 45.8244 53.1756 43.25 50 43.25C46.8244 43.25 44.25 45.8244 44.25 49C44.25 52.1756 46.8244 54.75 50 54.75Z" stroke="#D97706" stroke-width="4" stroke-miterlimit="10" stroke-linecap="round" stroke-linejoin="round"/>
<path d="M30.8335 50.688V47.3147C30.8335 45.3214 32.4627 43.6731 34.4752 43.6731C37.9443 43.6731 39.3627 41.2197 37.6185 38.2106C36.6218 36.4856 37.216 34.2431 38.9602 33.2464L42.276 31.3489C43.7902 30.4481 45.7452 30.9847 46.646 32.4989L46.8568 32.8631C48.5818 35.8722 51.4185 35.8722 53.1627 32.8631L53.3735 32.4989C54.2743 30.9847 56.2293 30.4481 57.7435 31.3489L61.0593 33.2464C62.8035 34.2431 63.3977 36.4856 62.401 38.2106C60.6568 41.2197 62.0752 43.6731 65.5443 43.6731C67.5377 43.6731 69.186 45.3022 69.186 47.3147V50.688C69.186 52.6814 67.5568 54.3297 65.5443 54.3297C62.0752 54.3297 60.6568 56.783 62.401 59.7922C63.3977 61.5364 62.8035 63.7597 61.0593 64.7564L57.7435 66.6539C56.2293 67.5547 54.2743 67.0181 53.3735 65.5039L53.1627 65.1397C51.4377 62.1306 48.601 62.1306 46.8568 65.1397L46.646 65.5039C45.7452 67.0181 43.7902 67.5547 42.276 66.6539L38.9602 64.7564C37.216 63.7597 36.6218 61.5172 37.6185 59.7922C39.3627 56.783 37.9443 54.3297 34.4752 54.3297C32.4627 54.3297 30.8335 52.6814 30.8335 50.688Z" stroke="#D97706" stroke-width="4" stroke-miterlimit="10" stroke-linecap="round" stroke-linejoin="round"/>
</svg>
